<?xml version="1.0" encoding="UTF-8"?>
<svg xmlns="http://www.w3.org/2000/svg" viewBox="0 0 249 169" fill="none" aria-hidden="true">
  <defs>
    <linearGradient id="shieldGold" x1="10%" y1="0%" x2="90%" y2="100%">
      <stop offset="0%" stop-color="#f3dfa0"/>
      <stop offset="35%" stop-color="#d8b65c"/>
      <stop offset="65%" stop-color="#b8953e"/>
      <stop offset="100%" stop-color="#7a5c24"/>
    </linearGradient>
  </defs>
  <g class="logo-shield-paths">
    <path stroke="url(#shieldGold)" stroke-width="3.6" stroke-linejoin="round" d="M 89.00 2.00 L 91.32 2.01 L 93.64 2.04 L 95.97 2.09 L 98.31 2.15 L 100.65 2.24 L 103.00 2.34 L 105.34 2.47 L 107.68 2.60 L 110.01 2.76 L 112.34 2.93 L 114.66 3.12 L 116.97 3.33 L 119.26 3.55 L 121.55 3.79 L 123.81 4.04 L 126.06 4.31 L 128.28 4.59 L 130.48 4.88 L 132.66 5.19 L 134.81 5.52 L 136.93 5.85 L 139.02 6.20 L 141.08 6.56 L 143.10 6.94 L 145.09 7.32 L 147.04 7.72 L 148.94 8.13 L 150.81 8.55 L 152.63 8.97 L 154.40 9.41 L 156.12 9.86 L 157.79 10.32 L 159.41 10.79 L 160.98 11.27 L 162.49 11.76 L 163.94 12.25 L 165.32 12.75 L 166.65 13.26 L 167.91 13.78 L 169.10 14.30 L 170.23 14.83 L 171.28 15.37 L 172.26 15.91 L 173.17 16.46 L 174.00 17.01 L 174.75 17.57 L 175.41 18.14 L 176.00 18.70 L 176.00 20.22 L 176.00 21.74 L 176.00 23.26 L 176.00 24.78 L 176.00 26.30 L 176.00 27.81 L 176.00 29.33 L 176.00 30.85 L 176.00 32.37 L 176.00 33.89 L 176.00 35.41 L 176.00 36.93 L 176.00 38.44 L 176.00 39.96 L 176.00 41.48 L 176.00 43.00 L 176.00 44.52 L 176.00 46.04 L 176.00 47.56 L 176.00 49.07 L 176.00 50.59 L 176.00 52.11 L 176.00 53.63 L 176.00 55.15 L 176.00 56.67 L 176.00 58.19 L 176.00 59.70 L 176.00 61.22 L 176.00 62.74 L 176.00 64.26 L 176.00 65.78 L 176.00 67.30 L 176.00 68.81 L 176.00 70.33 L 176.00 71.85 L 176.00 73.37 L 176.00 74.89 L 176.00 74.89 L 175.94 77.72 L 175.78 80.50 L 175.50 83.25 L 175.12 85.96 L 174.63 88.63 L 174.05 91.26 L 173.36 93.85 L 172.58 96.40 L 171.70 98.91 L 170.73 101.38 L 169.67 103.82 L 168.52 106.21 L 167.29 108.56 L 165.98 110.87 L 164.58 113.15 L 163.11 115.38 L 161.56 117.58 L 159.94 119.73 L 158.25 121.85 L 156.49 123.92 L 154.66 125.96 L 152.77 127.96 L 150.82 129.92 L 148.81 131.83 L 146.75 133.71 L 144.62 135.55 L 142.45 137.35 L 140.23 139.11 L 137.96 140.83 L 135.64 142.51 L 133.29 144.15 L 130.89 145.75 L 128.45 147.32 L 125.98 148.84 L 123.48 150.32 L 120.95 151.76 L 118.38 153.17 L 115.79 154.53 L 113.18 155.86 L 110.55 157.14 L 107.90 158.39 L 105.23 159.59 L 102.54 160.76 L 99.85 161.89 L 97.15 162.97 L 94.43 164.02 L 91.72 165.03 L 89.00 166.00 L 89.00 166.00 L 86.28 165.03 L 83.57 164.02 L 80.85 162.97 L 78.15 161.89 L 75.46 160.76 L 72.77 159.59 L 70.10 158.39 L 67.45 157.14 L 64.82 155.86 L 62.21 154.53 L 59.62 153.17 L 57.05 151.76 L 54.52 150.32 L 52.02 148.84 L 49.55 147.32 L 47.11 145.75 L 44.71 144.15 L 42.36 142.51 L 40.04 140.83 L 37.77 139.11 L 35.55 137.35 L 33.38 135.55 L 31.25 133.71 L 29.19 131.83 L 27.18 129.92 L 25.23 127.96 L 23.34 125.96 L 21.51 123.92 L 19.75 121.85 L 18.06 119.73 L 16.44 117.58 L 14.89 115.38 L 13.42 113.15 L 12.02 110.87 L 10.71 108.56 L 9.48 106.21 L 8.33 103.82 L 7.27 101.38 L 6.30 98.91 L 5.42 96.40 L 4.64 93.85 L 3.95 91.26 L 3.37 88.63 L 2.88 85.96 L 2.50 83.25 L 2.22 80.50 L 2.06 77.72 L 2.00 74.89 L 2.00 73.37 L 2.00 71.85 L 2.00 70.33 L 2.00 68.81 L 2.00 67.30 L 2.00 65.78 L 2.00 64.26 L 2.00 62.74 L 2.00 61.22 L 2.00 59.70 L 2.00 58.19 L 2.00 56.67 L 2.00 55.15 L 2.00 53.63 L 2.00 52.11 L 2.00 50.59 L 2.00 49.07 L 2.00 47.56 L 2.00 46.04 L 2.00 44.52 L 2.00 43.00 L 2.00 41.48 L 2.00 39.96 L 2.00 38.44 L 2.00 36.93 L 2.00 35.41 L 2.00 33.89 L 2.00 32.37 L 2.00 30.85 L 2.00 29.33 L 2.00 27.81 L 2.00 26.30 L 2.00 24.78 L 2.00 23.26 L 2.00 21.74 L 2.00 20.22 L 2.00 18.70 L 2.00 18.70 L 2.59 18.14 L 3.25 17.57 L 4.00 17.01 L 4.83 16.46 L 5.74 15.91 L 6.72 15.37 L 7.77 14.83 L 8.90 14.30 L 10.09 13.78 L 11.35 13.26 L 12.68 12.75 L 14.06 12.25 L 15.51 11.76 L 17.02 11.27 L 18.59 10.79 L 20.21 10.32 L 21.88 9.86 L 23.60 9.41 L 25.37 8.97 L 27.19 8.55 L 29.06 8.13 L 30.96 7.72 L 32.91 7.32 L 34.90 6.94 L 36.92 6.56 L 38.98 6.20 L 41.07 5.85 L 43.19 5.52 L 45.34 5.19 L 47.52 4.88 L 49.72 4.59 L 51.94 4.31 L 54.19 4.04 L 56.45 3.79 L 58.74 3.55 L 61.03 3.33 L 63.34 3.12 L 65.66 2.93 L 67.99 2.76 L 70.32 2.60 L 72.66 2.47 L 75.00 2.34 L 77.35 2.24 L 79.69 2.15 L 82.03 2.09 L 84.36 2.04 L 86.68 2.01 L 89.00 2.00 Z"/>
    <path stroke="url(#shieldGold)" stroke-width="1.9" stroke-linejoin="round" d="M 89.00 12.63 L 91.04 12.64 L 93.08 12.66 L 95.11 12.70 L 97.14 12.75 L 99.17 12.82 L 101.18 12.91 L 103.19 13.00 L 105.19 13.11 L 107.18 13.24 L 109.15 13.38 L 111.12 13.53 L 113.06 13.70 L 114.99 13.88 L 116.90 14.07 L 118.79 14.27 L 120.66 14.49 L 122.50 14.71 L 124.33 14.95 L 126.12 15.20 L 127.89 15.46 L 129.63 15.74 L 131.35 16.02 L 133.03 16.31 L 134.67 16.62 L 136.29 16.93 L 137.87 17.25 L 139.41 17.58 L 140.91 17.93 L 142.38 18.28 L 143.80 18.64 L 145.18 19.00 L 146.52 19.38 L 147.81 19.76 L 149.05 20.15 L 150.25 20.55 L 151.40 20.96 L 152.49 21.37 L 153.53 21.79 L 154.52 22.22 L 155.46 22.65 L 156.34 23.09 L 157.16 23.53 L 157.92 23.98 L 158.62 24.43 L 159.25 24.89 L 159.83 25.36 L 160.33 25.82 L 160.77 26.30 L 160.77 27.81 L 160.77 29.33 L 160.77 30.85 L 160.77 32.37 L 160.77 33.89 L 160.77 35.41 L 160.77 36.93 L 160.77 38.44 L 160.77 39.96 L 160.77 41.48 L 160.77 43.00 L 160.77 44.52 L 160.77 46.04 L 160.77 47.56 L 160.77 49.07 L 160.77 50.59 L 160.77 52.11 L 160.77 53.63 L 160.77 55.15 L 160.77 56.67 L 160.77 58.19 L 160.77 59.70 L 160.77 61.22 L 160.77 62.74 L 160.77 64.26 L 160.77 65.78 L 160.77 67.30 L 160.77 68.81 L 160.77 70.33 L 160.77 71.85 L 160.77 73.37 L 160.77 74.89 L 160.77 74.89 L 160.73 77.34 L 160.59 79.75 L 160.35 82.13 L 160.03 84.47 L 159.62 86.78 L 159.12 89.05 L 158.54 91.29 L 157.88 93.49 L 157.13 95.66 L 156.31 97.79 L 155.42 99.88 L 154.45 101.94 L 153.42 103.96 L 152.31 105.95 L 151.14 107.90 L 149.90 109.81 L 148.60 111.70 L 147.24 113.54 L 145.82 115.35 L 144.35 117.12 L 142.82 118.86 L 141.24 120.56 L 139.61 122.23 L 137.94 123.86 L 136.22 125.46 L 134.45 127.02 L 132.65 128.54 L 130.80 130.03 L 128.92 131.48 L 127.00 132.90 L 125.05 134.28 L 123.07 135.63 L 121.07 136.94 L 119.03 138.22 L 116.98 139.46 L 114.90 140.66 L 112.80 141.83 L 110.68 142.96 L 108.55 144.06 L 106.40 145.12 L 104.24 146.15 L 102.08 147.14 L 99.90 148.09 L 97.72 149.01 L 95.54 149.90 L 93.36 150.74 L 91.18 151.56 L 89.00 152.33 L 89.00 152.33 L 86.82 151.56 L 84.64 150.74 L 82.46 149.90 L 80.28 149.01 L 78.10 148.09 L 75.92 147.14 L 73.76 146.15 L 71.60 145.12 L 69.45 144.06 L 67.32 142.96 L 65.20 141.83 L 63.10 140.66 L 61.02 139.46 L 58.97 138.22 L 56.93 136.94 L 54.92 135.63 L 52.95 134.28 L 51.00 132.90 L 49.08 131.48 L 47.20 130.03 L 45.35 128.54 L 43.55 127.02 L 41.78 125.46 L 40.06 123.86 L 38.39 122.23 L 36.76 120.56 L 35.18 118.86 L 33.65 117.12 L 32.18 115.35 L 30.76 113.54 L 29.40 111.70 L 28.10 109.81 L 26.86 107.90 L 25.69 105.95 L 24.58 103.96 L 23.55 101.94 L 22.58 99.88 L 21.69 97.79 L 20.87 95.66 L 20.12 93.49 L 19.46 91.29 L 18.88 89.05 L 18.38 86.78 L 17.97 84.47 L 17.65 82.13 L 17.41 79.75 L 17.27 77.34 L 17.22 74.89 L 17.22 73.37 L 17.22 71.85 L 17.22 70.33 L 17.22 68.81 L 17.22 67.30 L 17.22 65.78 L 17.22 64.26 L 17.22 62.74 L 17.22 61.22 L 17.22 59.70 L 17.22 58.19 L 17.22 56.67 L 17.22 55.15 L 17.22 53.63 L 17.22 52.11 L 17.22 50.59 L 17.22 49.07 L 17.22 47.56 L 17.22 46.04 L 17.22 44.52 L 17.22 43.00 L 17.22 41.48 L 17.22 39.96 L 17.22 38.44 L 17.22 36.93 L 17.22 35.41 L 17.22 33.89 L 17.22 32.37 L 17.22 30.85 L 17.22 29.33 L 17.22 27.81 L 17.22 26.30 L 17.22 26.30 L 17.67 25.82 L 18.17 25.36 L 18.75 24.89 L 19.38 24.43 L 20.08 23.98 L 20.84 23.53 L 21.66 23.09 L 22.54 22.65 L 23.48 22.22 L 24.47 21.79 L 25.51 21.37 L 26.60 20.96 L 27.75 20.55 L 28.95 20.15 L 30.19 19.76 L 31.48 19.38 L 32.82 19.00 L 34.20 18.64 L 35.62 18.28 L 37.09 17.93 L 38.59 17.58 L 40.13 17.25 L 41.71 16.93 L 43.32 16.62 L 44.97 16.31 L 46.65 16.02 L 48.37 15.74 L 50.11 15.46 L 51.88 15.20 L 53.67 14.95 L 55.50 14.71 L 57.34 14.49 L 59.21 14.27 L 61.10 14.07 L 63.01 13.88 L 64.94 13.70 L 66.88 13.53 L 68.85 13.38 L 70.82 13.24 L 72.81 13.11 L 74.81 13.00 L 76.82 12.91 L 78.83 12.82 L 80.86 12.75 L 82.89 12.70 L 84.92 12.66 L 86.96 12.64 L 89.00 12.63 Z"/>
  </g>
</svg>
